<svg id="phone-call_6_" data-name="phone-call(6)" xmlns="http://www.w3.org/2000/svg" width="35.912" height="35.912" viewBox="0 0 35.912 35.912">
  <g id="グループ_1121" data-name="グループ 1121">
    <path id="パス_2281" data-name="パス 2281" d="M30.65,5.257a17.956,17.956,0,1,0,5.261,12.695A17.956,17.956,0,0,0,30.65,5.257ZM27.193,25.012l0,0v-.006l-.91.9A4.788,4.788,0,0,1,21.762,27.2a15.91,15.91,0,0,1-4.621-2.071A21.349,21.349,0,0,1,13.5,22.2a21.512,21.512,0,0,1-2.723-3.3A16.757,16.757,0,0,1,8.726,14.75a4.788,4.788,0,0,1,1.2-4.89l1.065-1.065a.76.76,0,0,1,1.075,0l0,0,3.364,3.364a.76.76,0,0,1,0,1.075l0,0L13.454,15.21a1.61,1.61,0,0,0-.168,2.095,23.1,23.1,0,0,0,2.364,2.759,22.958,22.958,0,0,0,3.112,2.616,1.622,1.622,0,0,0,2.071-.18l1.909-1.939a.76.76,0,0,1,1.075,0l0,0,3.37,3.376A.76.76,0,0,1,27.193,25.012Z" transform="translate(0 0)" fill="#fff"/>
  </g>
</svg>
