<svg xmlns="http://www.w3.org/2000/svg" width="32" height="32" viewBox="0 0 32 32">
  <g id="グループ_39816" data-name="グループ 39816" transform="translate(-217.803 -4470.499)">
    <circle id="楕円形_16" data-name="楕円形 16" cx="16" cy="16" r="16" transform="translate(217.803 4470.499)" fill="#fff"/>
    <g id="email_1_" data-name="email(1)" transform="translate(226.322 4401.262)">
      <g id="グループ_39498" data-name="グループ 39498" transform="translate(9.916 81.896)">
        <g id="グループ_39497" data-name="グループ 39497">
          <path id="パス_91936" data-name="パス 91936" d="M339.392,148.219l5.043,3.188V144.9Z" transform="translate(-339.392 -144.896)" fill="#3aafaa"/>
        </g>
      </g>
      <g id="グループ_39500" data-name="グループ 39500" transform="translate(0 81.896)">
        <g id="グループ_39499" data-name="グループ 39499">
          <path id="パス_91937" data-name="パス 91937" d="M0,144.9v6.511l5.043-3.188Z" transform="translate(0 -144.896)" fill="#3aafaa"/>
        </g>
      </g>
      <g id="グループ_39502" data-name="グループ 39502" transform="translate(0.028 80)">
        <g id="グループ_39501" data-name="グループ 39501">
          <path id="パス_91938" data-name="パス 91938" d="M14.956,80H1.867a.923.923,0,0,0-.907.8l7.452,4.91,7.452-4.91A.923.923,0,0,0,14.956,80Z" transform="translate(-0.96 -80)" fill="#3aafaa"/>
        </g>
      </g>
      <g id="グループ_39504" data-name="グループ 39504" transform="translate(0.03 85.783)">
        <g id="グループ_39503" data-name="グループ 39503">
          <path id="パス_91939" data-name="パス 91939" d="M10.054,277.921l-1.323.871a.47.47,0,0,1-.514,0l-1.323-.872-5.87,3.713a.922.922,0,0,0,.905.789h13.09a.922.922,0,0,0,.905-.789Z" transform="translate(-1.024 -277.92)" fill="#3aafaa"/>
        </g>
      </g>
    </g>
  </g>
</svg>
