<svg xmlns="http://www.w3.org/2000/svg" width="15.347" height="20.462" viewBox="0 0 15.347 20.462">
  <g id="lock" transform="translate(-64)">
    <g id="グループ_38851" data-name="グループ 38851" transform="translate(64)">
      <path id="パス_2290" data-name="パス 2290" d="M78.92,7.673H77.641V5.968a5.968,5.968,0,0,0-11.936,0V7.673H64.426A.426.426,0,0,0,64,8.1V18.757a1.707,1.707,0,0,0,1.705,1.705H77.642a1.707,1.707,0,0,0,1.705-1.705V8.1A.426.426,0,0,0,78.92,7.673ZM72.95,16.579a.426.426,0,0,1-.424.473H70.821a.426.426,0,0,1-.424-.473l.269-2.418a1.687,1.687,0,0,1-.7-1.371,1.705,1.705,0,1,1,3.41,0,1.687,1.687,0,0,1-.7,1.371Zm2.134-8.905H68.263V5.968a3.41,3.41,0,1,1,6.821,0Z" transform="translate(-64)" fill="#0063a1"/>
    </g>
  </g>
</svg>
